<?xml version="1.0" encoding="UTF-8"?>
<svg width="375px" height="245px" viewBox="0 0 375 245" version="1.1" xmlns="http://www.w3.org/2000/svg" xmlns:xlink="http://www.w3.org/1999/xlink">
    <!-- Generator: Sketch 63.1 (92452) - https://sketch.com -->
    <title>Path</title>
    <desc>Created with Sketch.</desc>
    <g id="Screens" stroke="none" stroke-width="1" fill="none" fill-rule="evenodd">
        <g id="Home---Recording---Dark" transform="translate(0.000000, -567.000000)" fill="#0E1D3A" stroke="#253657">
            <path d="M78.6216338,567.5 C68.1370856,567.5 63.6952193,569.346187 58.2295734,573.005336 C55.7432478,574.669886 53.5310324,576.566904 51.4741192,578.329433 C47.5022531,581.732847 44.0782072,584.589601 40.4538505,584.589601 C37.9350644,584.589601 35.6027542,583.328273 33.0406138,581.911848 C30.076025,580.272938 26.7835444,578.434666 22.4118587,578.434666 C18.7894067,578.434666 13.9907836,581.501683 8.64255178,586.286016 C6.97350004,587.779089 3.92604871,590.6531 -0.500000014,594.90783 L-0.5,812.5 L375.5,812.5 L375.5,592.081858 C374.220799,592.401431 372.674436,593.843059 370.943061,595.369871 C368.130489,597.850135 364.887464,600.633928 361.638548,600.633928 C358.953997,600.633928 357.559717,599.622417 356.050029,598.506212 C354.415283,597.297544 352.626848,595.972938 348.511466,595.972938 C343.33679,595.972938 337.786214,601.062169 327.069515,610.940067 C316.047553,621.099335 306.762283,624.361498 299.584581,624.361498 C291.734959,624.361498 284.884178,619.771979 278.946914,615.107061 C277.868857,614.260029 276.866094,613.409309 275.902221,612.591445 C272.260751,609.501592 269.20258,606.853668 264.591008,606.849971 C261.334791,606.849971 259.295766,608.06531 257.25648,609.265057 C255.081753,610.544488 252.906918,611.808072 249.459264,611.808072 C245.405724,611.884466 242.337342,609.489059 238.863975,606.715259 C234.610078,603.318133 229.709097,599.379405 221.250403,599.367298 C214.073146,599.367298 206.879596,605.725246 200.853054,610.989535 C196.237605,615.02121 192.271222,618.368804 189.489449,618.257039 C187.018361,618.254182 185.408071,617.278875 183.776527,616.27077 C182.240485,615.321674 180.683571,614.342027 178.197515,614.342027 C175.42397,614.35048 173.758312,615.833212 171.833711,617.493142 C169.026057,619.914688 165.724309,622.754257 158.353298,622.754257 C151.71499,622.754257 143.928843,615.647269 133.673635,606.140891 C129.279903,602.067986 124.423367,597.565815 118.993052,593.032003 C118.11186,592.296289 117.235947,591.563293 116.365625,590.834976 C101.667541,578.535076 88.5896751,567.5 78.6216338,567.5 Z" id="Path"></path>
        </g>
    </g>
</svg>