<?xml version="1.0" encoding="utf-8"?>
<svg xmlns="http://www.w3.org/2000/svg" viewBox="0 0 30 30" fill="#9856fe"><path d="M24.995,9.275l-9.047-5.026C15.665,4.095,15.345,4,15,4s-0.665,0.095-0.948,0.249L5.005,9.275C4.407,9.62,4,10.26,4,11v14 c0,1.105,0.895,2,2,2h18c1.105,0,2-0.895,2-2V11C26,10.26,25.593,9.62,24.995,9.275z M12,20.87C11.56,22.108,10.389,23,9,23 s-2.56-0.892-3-2.13V20h6V20.87z M24,20.87C23.56,22.108,22.389,23,21,23s-2.56-0.892-3-2.13V20h6V20.87z M22.75,18L21,14.5 L19.25,18H18l2-4h-3.889c-0.275,0.305-0.668,0.5-1.111,0.5s-0.836-0.195-1.111-0.5H10l2,4h-1.25L9,14.5L7.25,18H6l2-4 c-0.552,0-1-0.448-1-1c0-0.552,0.448-1,1-1h5.889c0.275-0.305,0.668-0.5,1.111-0.5s0.836,0.195,1.111,0.5H22c0.552,0,1,0.448,1,1 c0,0.552-0.448,1-1,1l2,4H22.75z" fill="#9856fe"/></svg>
